<svg
    xmlns="http://www.w3.org/2000/svg"
    className="w-6 h-6"
    fill="currentColor"
    viewBox="0 0 24 24"
  >
    <path d="M12 .297c-6.63 0-12 5.373-12 12 0 5.303 3.438 9.8 8.205 11.385.6.113.82-.258.82-.577 0-.285-.01-1.04-.016-2.04-3.338.726-4.042-1.416-4.042-1.416-.546-1.385-1.333-1.754-1.333-1.754-1.089-.744.083-.729.083-.729 1.205.084 1.838 1.236 1.838 1.236 1.07 1.835 2.809 1.305 3.495.997.108-.776.419-1.305.762-1.605-2.665-.306-5.467-1.334-5.467-5.93 0-1.31.467-2.381 1.235-3.221-.123-.303-.535-1.523.117-3.176 0 0 1.008-.322 3.3 1.23a11.474 11.474 0 0 1 3-.405c1.02.004 2.04.138 3 .405 2.292-1.553 3.3-1.23 3.3-1.23.653 1.653.241 2.873.118 3.176.77.84 1.234 1.911 1.234 3.221 0 4.61-2.807 5.62-5.479 5.92.431.372.815 1.104.815 2.223 0 1.606-.014 2.898-.014 3.293 0 .32.219.694.825.577 4.765-1.586 8.199-6.082 8.199-11.385 0-6.627-5.373-12-12-12z" />
</svg>
