<svg
    xmlns="http://www.w3.org/2000/svg"
    className="w-6 h-6"
    fill="currentColor"
    viewBox="0 0 24 24"
  >
    <path d="M22.23 0H1.77C.79 0 0 .774 0 1.727v20.545C0 23.227.79 24 1.77 24h20.46c.98 0 1.77-.773 1.77-1.727V1.727C24 .774 23.21 0 22.23 0zM7.12 20.452H3.56V9h3.56v11.452zM5.34 7.688a2.062 2.062 0 1 1 0-4.124 2.062 2.062 0 0 1 0 4.124zM20.452 20.452h-3.56v-5.781c0-1.379-.028-3.156-1.923-3.156-1.923 0-2.218 1.503-2.218 3.055v5.882H9.193V9h3.415v1.561h.049c.475-.9 1.636-1.848 3.368-1.848 3.6 0 4.268 2.371 4.268 5.458v6.281z" />
  </svg>