<svg
    xmlns="http://www.w3.org/2000/svg"
    className="w-6 h-6"
    fill="currentColor"
    viewBox="0 0 24 24"
  >
    <path d="M24 4.557c-.883.391-1.83.656-2.828.775 1.017-.611 1.798-1.574 2.165-2.724-.951.564-2.005.974-3.127 1.194-.897-.956-2.178-1.555-3.594-1.555-2.717 0-4.924 2.207-4.924 4.924 0 .386.043.762.127 1.124-4.094-.205-7.725-2.167-10.158-5.144-.424.728-.666 1.574-.666 2.476 0 1.708.869 3.213 2.188 4.096-.807-.026-1.566-.247-2.23-.616v.062c0 2.385 1.697 4.374 3.946 4.827-.413.112-.849.171-1.296.171-.316 0-.626-.031-.929-.089.627 1.956 2.444 3.379 4.6 3.419-1.68 1.317-3.809 2.102-6.114 2.102-.398 0-.79-.023-1.175-.069 2.179 1.397 4.768 2.213 7.557 2.213 9.054 0 14-7.496 14-13.986 0-.21-.006-.423-.016-.634.962-.693 1.797-1.56 2.457-2.548l-.047-.02z" />
</svg>
